<?xml version="1.0" encoding="utf-8"?>
<!-- Generator: Adobe Illustrator 16.0.0, SVG Export Plug-In . SVG Version: 6.00 Build 0)  -->
<!DOCTYPE svg PUBLIC "-//W3C//DTD SVG 1.1//EN" "http://www.w3.org/Graphics/SVG/1.1/DTD/svg11.dtd">
<svg version="1.1" id="Layer_1" xmlns="http://www.w3.org/2000/svg" xmlns:xlink="http://www.w3.org/1999/xlink" x="0px" y="0px"
	 width="841.89px" height="595.28px" viewBox="0 0 841.89 595.28" enable-background="new 0 0 841.89 595.28" xml:space="preserve">
<circle fill="#E84D81" cx="431.741" cy="254.766" r="94.939"/>
<rect x="367" y="250.5" fill="#FFFFFF" width="143.937" height="64.383"/>
<rect x="363" y="216.553" fill="#FFFFFF" width="154.912" height="33.947"/>
<polygon fill="#FFFFFF" points="349.693,190.865 490.835,121.737 502.599,147.426 361.334,216.553 355.722,204.028 "/>
<g>
	<path fill="none" d="M491.888,278.096l-0.047,0.049l-8.797-9.098c-0.175,0.648-0.275,1.328-0.275,2.033v1.122
		c0,4.167,3.267,7.545,7.297,7.545h3.669c4.029,0,7.296-3.378,7.296-7.545v-1.122c0-0.712-0.102-1.398-0.279-2.052l-8.816,9.117
		L491.888,278.096z"/>
	<path fill="none" d="M460.396,263.535h-74.664c-4.029,0-7.296,3.379-7.296,7.545v1.122c0,4.167,3.267,7.545,7.296,7.545h74.664
		c4.03,0,7.297-3.378,7.297-7.545v-1.122C467.692,266.914,464.426,263.535,460.396,263.535z"/>
	<path fill="none" d="M460.396,284.387h-74.664c-4.029,0-7.296,3.378-7.296,7.545v1.121c0,4.167,3.267,7.545,7.296,7.545h74.664
		c4.03,0,7.297-3.378,7.297-7.545v-1.121C467.692,287.765,464.426,284.387,460.396,284.387z"/>
	<path fill="none" d="M493.828,284.387h-3.67c-4.029,0-7.296,3.378-7.296,7.545v1.121c0,4.167,3.267,7.545,7.296,7.545h3.67
		c4.029,0,7.296-3.378,7.296-7.545v-1.121C501.124,287.765,497.857,284.387,493.828,284.387z"/>
	<path fill="none" d="M490.065,263.535c-1.267,0-2.458,0.335-3.495,0.922l5.317,5.499l5.327-5.509
		c-1.034-0.582-2.221-0.912-3.48-0.912H490.065z"/>
	<polygon fill="#2D3648" points="517.792,216.553 490.307,244.978 517.912,244.978 517.912,216.553 	"/>
	<polygon fill="#2D3648" points="497.178,216.553 476.307,216.553 448.82,244.978 469.692,244.978 	"/>
	<path fill="#2D3648" d="M378.436,244.978h8.456l27.486-28.424h-36.232c0.192,1.051,0.291,2.116,0.291,3.182V244.978z"/>
	<polygon fill="#2D3648" points="455.692,216.553 434.992,216.553 407.506,244.978 428.206,244.978 	"/>
	<polygon fill="#2D3648" points="502.599,147.426 490.835,121.737 465.886,133.957 502.491,147.479 	"/>
	<polygon fill="#2D3648" points="483.86,156.604 447.255,143.082 428.393,152.32 464.997,165.842 	"/>
	<path fill="#2D3648" d="M373.622,207.718c0.625,0.646,1.187,1.333,1.69,2.049l33.716-16.513l-36.605-13.521l-22.73,11.132
		l6.029,13.164C361.676,201.485,368.782,202.713,373.622,207.718z"/>
	<polygon fill="#2D3648" points="446.366,174.967 409.762,161.445 391.054,170.607 427.658,184.13 	"/>
	<path fill="#C3D3DE" d="M469.692,244.978H448.82h-20.614h-20.7h-20.615h-8.456v-25.243c0-1.065-0.098-2.131-0.291-3.182
		c-0.441-2.401-1.385-4.723-2.833-6.786c-0.503-0.717-1.065-1.403-1.69-2.049c-4.839-5.005-11.946-6.233-17.9-3.69
		c-1.942,0.829-3.762,2.058-5.34,3.69c-3.209,3.318-4.813,7.667-4.813,12.017l0.004,0.007c0,0.033-0.004,0.064-0.004,0.097v99.723
		c0,4.476,3.267,8.105,7.296,8.105h16.172h1.041h140.537c4.029,0,7.297-4.706,7.297-10.513v-72.177h-27.605H469.692z
		 M467.692,293.053c0,4.167-3.267,7.545-7.297,7.545h-74.664c-4.029,0-7.296-3.378-7.296-7.545v-1.121
		c0-4.167,3.267-7.545,7.296-7.545h74.664c4.03,0,7.297,3.378,7.297,7.545V293.053z M467.692,272.202
		c0,4.167-3.267,7.545-7.297,7.545h-74.664c-4.029,0-7.296-3.378-7.296-7.545v-1.122c0-4.167,3.267-7.545,7.296-7.545h74.664
		c4.03,0,7.297,3.379,7.297,7.545V272.202z M501.124,293.053c0,4.167-3.267,7.545-7.296,7.545h-3.67
		c-4.029,0-7.296-3.378-7.296-7.545v-1.121c0-4.167,3.267-7.545,7.296-7.545h3.67c4.029,0,7.296,3.378,7.296,7.545V293.053z
		 M506.954,254.375l3.982,4.118l-10.186,10.535c0.178,0.653,0.279,1.339,0.279,2.052v1.122c0,4.167-3.267,7.545-7.296,7.545h-3.669
		c-4.03,0-7.297-3.378-7.297-7.545v-1.122c0-0.705,0.101-1.385,0.275-2.033l-2.008-2.076l3.982-4.119l1.552,1.605
		c1.037-0.587,2.229-0.922,3.495-0.922h3.669c1.26,0,2.446,0.331,3.48,0.912L506.954,254.375z"/>
	<polygon fill="#4F83A4" points="486.57,264.457 485.019,262.852 481.036,266.971 483.044,269.047 491.841,278.145 491.888,278.096 
		491.935,278.145 500.751,269.028 510.937,258.493 506.954,254.375 497.215,264.447 491.888,269.956 	"/>
</g>
<g>
	<path fill="none" d="M510.033,385.953v-0.813c0.02-1.125-0.172-2.084-0.578-2.875c-0.406-0.792-0.996-1.396-1.766-1.813
		c-0.771-0.417-1.709-0.625-2.813-0.625c-1.146,0-2.09,0.25-2.828,0.75c-0.74,0.5-1.313,1.182-1.719,2.047
		c-0.406,0.864-0.693,1.859-0.859,2.984c-0.017,0.111-0.022,0.231-0.037,0.344H510.033z"/>
	<path fill="none" d="M438.443,439.252c-0.771-0.416-1.708-0.625-2.813-0.625c-1.146,0-2.088,0.25-2.828,0.75
		c-0.739,0.5-1.313,1.184-1.719,2.047c-0.406,0.865-0.692,1.859-0.859,2.984c-0.017,0.111-0.022,0.231-0.037,0.344h10.6v-0.813
		c0.021-1.125-0.172-2.082-0.578-2.875C439.803,440.273,439.215,439.67,438.443,439.252z"/>
	<path fill="none" d="M419.286,382.531c-0.438-0.844-1.031-1.506-1.781-1.984c-0.75-0.479-1.688-0.719-2.813-0.719
		c-1.104,0-2.026,0.239-2.766,0.719c-0.74,0.479-1.328,1.141-1.766,1.984s-0.75,1.813-0.938,2.906s-0.281,2.255-0.281,3.484v0.656
		c0,1.271,0.094,2.458,0.281,3.563c0.188,1.104,0.5,2.067,0.938,2.891c0.438,0.822,1.031,1.463,1.781,1.922
		c0.75,0.458,1.688,0.688,2.813,0.688c1.104,0,2.026-0.229,2.766-0.688c0.739-0.459,1.328-1.1,1.766-1.922
		c0.438-0.823,0.75-1.787,0.938-2.891c0.188-1.104,0.281-2.292,0.281-3.563v-0.656c0-1.229-0.094-2.391-0.281-3.484
		S419.724,383.375,419.286,382.531z"/>
	<polygon fill="#2D3648" points="384.131,406.141 384.131,360.641 377.538,360.641 367.381,392.297 357.225,360.641 352.1,360.641 
		348.288,360.641 342.85,360.641 342.85,406.141 353.819,406.141 353.819,395.516 352.747,373.756 363.756,406.141 371.006,406.141 
		384.125,367.554 384.099,395.516 	"/>
	<path fill="#2D3648" d="M426.849,401.875c1.375-1.553,2.417-3.375,3.125-5.469s1.063-4.37,1.063-6.828v-0.656
		c0-2.479-0.354-4.766-1.063-6.859s-1.75-3.912-3.125-5.453c-1.375-1.542-3.078-2.745-5.109-3.609
		c-2.031-0.865-4.38-1.297-7.047-1.297c-2.646,0-4.979,0.432-7,1.297c-2.021,0.864-3.719,2.067-5.094,3.609
		c-1.375,1.541-2.417,3.359-3.125,5.453c-0.708,2.094-1.063,4.38-1.063,6.859v0.656c0,2.458,0.354,4.734,1.063,6.828
		c0.708,2.094,1.75,3.916,3.125,5.469c1.375,1.552,3.083,2.755,5.125,3.609c2.042,0.854,4.385,1.281,7.031,1.281
		c2.646,0,4.979-0.428,7-1.281C423.775,404.63,425.474,403.427,426.849,401.875z M420.505,389.578c0,1.271-0.094,2.458-0.281,3.563
		c-0.188,1.104-0.5,2.067-0.938,2.891c-0.438,0.822-1.026,1.463-1.766,1.922c-0.74,0.458-1.662,0.688-2.766,0.688
		c-1.125,0-2.063-0.229-2.813-0.688c-0.75-0.459-1.344-1.1-1.781-1.922c-0.438-0.823-0.75-1.787-0.938-2.891
		c-0.188-1.104-0.281-2.292-0.281-3.563v-0.656c0-1.229,0.094-2.391,0.281-3.484s0.5-2.063,0.938-2.906s1.026-1.506,1.766-1.984
		c0.739-0.479,1.661-0.719,2.766-0.719c1.125,0,2.063,0.239,2.813,0.719c0.75,0.479,1.344,1.141,1.781,1.984s0.75,1.813,0.938,2.906
		s0.281,2.255,0.281,3.484V389.578z"/>
	<polygon fill="#2D3648" points="466.441,372.328 455.348,372.328 450.014,393.641 444.754,372.328 433.629,372.328 444.66,406.141 
		448.816,406.141 451.254,406.141 455.379,406.141 	"/>
	<path fill="#2D3648" d="M476.627,368.734c1.729,0,3.135-0.479,4.219-1.438c1.084-0.959,1.625-2.188,1.625-3.688
		s-0.541-2.729-1.625-3.688c-1.084-0.959-2.49-1.438-4.219-1.438s-3.135,0.479-4.219,1.438c-1.084,0.958-1.625,2.188-1.625,3.688
		s0.541,2.729,1.625,3.688C473.492,368.255,474.898,368.734,476.627,368.734z"/>
	<rect x="471.408" y="372.328" fill="#2D3648" width="10.563" height="33.813"/>
	<path fill="#2D3648" d="M493.236,401.891c1.488,1.521,3.316,2.713,5.484,3.578c2.166,0.863,4.625,1.297,7.375,1.297
		c2.166,0,4.125-0.287,5.875-0.859c1.75-0.573,3.254-1.318,4.516-2.234c1.26-0.917,2.234-1.865,2.922-2.844l-4.781-5.688
		c-1,1.25-2.199,2.146-3.594,2.688c-1.396,0.541-2.813,0.813-4.25,0.813c-1.188,0-2.246-0.198-3.172-0.594
		c-0.928-0.396-1.719-0.953-2.375-1.672s-1.156-1.589-1.5-2.609c-0.131-0.388-0.229-0.798-0.31-1.219h20.888v-4.281
		c0-2.542-0.35-4.834-1.047-6.875c-0.699-2.042-1.709-3.781-3.031-5.219c-1.324-1.438-2.934-2.542-4.828-3.313
		c-1.896-0.771-4.043-1.156-6.438-1.156c-2.709,0-5.084,0.442-7.125,1.328c-2.043,0.885-3.74,2.119-5.094,3.703
		c-1.355,1.583-2.375,3.432-3.063,5.547c-0.688,2.114-1.031,4.411-1.031,6.891v1.188c0,2.208,0.391,4.302,1.172,6.281
		C490.611,398.619,491.746,400.369,493.236,401.891z M500.33,382.625c0.406-0.865,0.979-1.547,1.719-2.047
		c0.738-0.5,1.682-0.75,2.828-0.75c1.104,0,2.041,0.208,2.813,0.625c0.77,0.416,1.359,1.021,1.766,1.813
		c0.406,0.791,0.598,1.75,0.578,2.875v0.813h-10.6c0.015-0.112,0.021-0.232,0.037-0.344
		C499.637,384.484,499.924,383.489,500.33,382.625z"/>
	<path fill="#E84D81" d="M353.178,434.705c0.323-1.719,0.817-3.119,1.484-4.203c0.667-1.082,1.5-1.875,2.5-2.375
		s2.177-0.75,3.531-0.75c1.938,0,3.489,0.293,4.656,0.875c1.167,0.584,2.021,1.453,2.563,2.609c0.542,1.156,0.833,2.59,0.875,4.297
		h10.938c-0.271-3.145-1.156-5.953-2.656-8.422s-3.615-4.41-6.344-5.828c-2.729-1.416-6.073-2.125-10.031-2.125
		c-2.875,0-5.49,0.512-7.844,1.531c-2.354,1.021-4.37,2.496-6.047,4.422c-1.677,1.928-2.969,4.262-3.875,7
		c-0.906,2.74-1.359,5.818-1.359,9.234v2.469c0,3.418,0.432,6.49,1.297,9.219c0.864,2.73,2.125,5.053,3.781,6.969
		c1.656,1.918,3.677,3.387,6.063,4.406c2.385,1.021,5.099,1.531,8.141,1.531c3.75,0,7.005-0.672,9.766-2.016
		c2.76-1.344,4.922-3.223,6.484-5.641c1.563-2.416,2.417-5.207,2.563-8.375h-10.938c-0.042,1.709-0.375,3.109-1,4.203
		s-1.511,1.906-2.656,2.438c-1.146,0.531-2.552,0.797-4.219,0.797c-1.5,0-2.766-0.254-3.797-0.766
		c-1.031-0.51-1.87-1.307-2.516-2.391c-0.646-1.082-1.115-2.479-1.406-4.188c-0.292-1.707-0.438-3.77-0.438-6.188v-2.531
		C352.694,438.492,352.855,436.424,353.178,434.705z"/>
	<path fill="#E84D81" d="M411.459,433.533c-1.011-1.063-2.208-1.832-3.594-2.313c-1.386-0.479-2.912-0.719-4.578-0.719
		c-1.854,0-3.542,0.406-5.063,1.219c-1.368,0.73-2.549,1.746-3.563,3.016v-17.797h-10.531v48h10.531v-24.267
		c0.392-0.587,0.907-1.065,1.563-1.421c0.771-0.416,1.771-0.625,3-0.625c1.021,0,1.885,0.152,2.594,0.453
		c0.708,0.303,1.255,0.834,1.641,1.594c0.385,0.762,0.578,1.828,0.578,3.203v21.063h10.594v-21c0-2.457-0.276-4.541-0.828-6.25
		C413.251,435.982,412.47,434.596,411.459,433.533z"/>
	<path fill="#E84D81" d="M446.99,434.971c-1.322-1.438-2.932-2.541-4.828-3.313c-1.896-0.77-4.041-1.156-6.438-1.156
		c-2.708,0-5.083,0.443-7.125,1.328c-2.041,0.887-3.739,2.121-5.094,3.703c-1.354,1.584-2.375,3.434-3.063,5.547
		c-0.688,2.115-1.031,4.412-1.031,6.891v1.188c0,2.209,0.391,4.303,1.172,6.281c0.781,1.98,1.917,3.73,3.406,5.25
		c1.49,1.521,3.318,2.715,5.484,3.578c2.167,0.865,4.625,1.297,7.375,1.297c2.167,0,4.125-0.286,5.875-0.859
		c1.75-0.572,3.256-1.316,4.516-2.234c1.261-0.916,2.234-1.863,2.922-2.844l-4.781-5.688c-1,1.25-2.197,2.146-3.594,2.688
		c-1.396,0.543-2.813,0.813-4.25,0.813c-1.188,0-2.244-0.197-3.172-0.594c-0.927-0.395-1.719-0.953-2.375-1.672
		s-1.156-1.588-1.5-2.609c-0.131-0.388-0.229-0.798-0.31-1.219h20.888v-4.281c0-2.541-0.349-4.832-1.047-6.875
		C449.324,438.148,448.313,436.408,446.99,434.971z M440.787,444.752h-10.6c0.015-0.112,0.021-0.232,0.037-0.344
		c0.167-1.125,0.453-2.119,0.859-2.984c0.406-0.863,0.979-1.547,1.719-2.047c0.74-0.5,1.683-0.75,2.828-0.75
		c1.104,0,2.042,0.209,2.813,0.625c0.771,0.418,1.359,1.021,1.766,1.813c0.406,0.793,0.6,1.75,0.578,2.875V444.752z"/>
	<path fill="#E84D81" d="M464.74,444.221c0.115-1.082,0.344-2.047,0.688-2.891s0.85-1.504,1.516-1.984
		c0.666-0.479,1.541-0.719,2.625-0.719s1.975,0.246,2.672,0.734c0.697,0.49,1.213,1.141,1.547,1.953s0.49,1.73,0.469,2.75h9.906
		c0.021-2.875-0.584-5.322-1.813-7.344c-1.229-2.02-2.922-3.563-5.078-4.625s-4.641-1.594-7.453-1.594
		c-2.625,0-4.922,0.434-6.891,1.297c-1.969,0.865-3.613,2.074-4.938,3.625c-1.322,1.553-2.313,3.375-2.969,5.469
		s-0.984,4.359-0.984,6.797v0.719c0,2.438,0.328,4.699,0.984,6.781c0.656,2.084,1.646,3.902,2.969,5.453
		c1.324,1.553,2.975,2.762,4.953,3.625c1.979,0.865,4.291,1.297,6.938,1.297c2.709,0,5.141-0.525,7.297-1.578
		c2.156-1.051,3.865-2.531,5.125-4.438s1.881-4.129,1.859-6.672h-9.906c0.021,0.959-0.15,1.777-0.516,2.453
		c-0.365,0.678-0.896,1.199-1.594,1.563c-0.697,0.365-1.537,0.547-2.516,0.547c-1.104,0-1.99-0.234-2.656-0.703
		s-1.178-1.113-1.531-1.938c-0.354-0.822-0.588-1.781-0.703-2.875s-0.172-2.266-0.172-3.516v-0.719
		C464.568,446.461,464.625,445.305,464.74,444.221z"/>
	<polygon fill="#E84D81" points="509.6,464.939 521.662,464.939 509.011,445.042 520.881,431.127 508.256,431.127 500.318,441.002 
		499.256,442.386 499.256,416.908 488.725,416.908 488.725,464.939 499.256,464.939 499.256,455.283 502.208,452.331 	"/>
	<polygon fill="#E84D81" points="384.131,406.141 394.663,406.141 394.663,360.641 386.475,360.641 384.131,360.641 	"/>
</g>
</svg>
